<?xml version="1.0" standalone="no"?>
<!DOCTYPE svg PUBLIC "-//W3C//DTD SVG 20010904//EN"
 "http://www.w3.org/TR/2001/REC-SVG-20010904/DTD/svg10.dtd">
<svg version="1.0" xmlns="http://www.w3.org/2000/svg"
 width="260.000000pt" height="260.000000pt" viewBox="0 0 260.000000 260.000000"
 preserveAspectRatio="xMidYMid meet">
<metadata>
Created by potrace 1.11, written by Peter Selinger 2001-2013
</metadata>
<g transform="translate(0.000000,260.000000) scale(0.100000,-0.100000)"
fill="#000000" stroke="none">
<path d="M1136 2422 c-2 -2 -33 -5 -67 -8 -118 -8 -147 -11 -158 -18 -6 -4
-11 -5 -11 -3 0 4 -69 -8 -159 -27 -141 -31 -437 -147 -449 -178 -2 -4 -9 -8
-15 -8 -13 0 -143 -99 -176 -134 -33 -35 -14 -33 35 3 39 29 178 103 239 128
82 34 250 85 320 99 11 2 31 6 45 9 46 10 132 24 178 30 224 29 604 24 780
-10 15 -3 45 -8 67 -10 22 -3 48 -8 57 -11 9 -3 26 -7 38 -9 31 -6 173 -45
190 -52 8 -3 22 -7 31 -9 24 -5 176 -71 234 -102 27 -15 74 -44 103 -65 37
-27 52 -33 52 -22 0 8 -3 15 -7 15 -5 0 -26 17 -48 38 -22 21 -67 56 -100 78
-64 44 -245 137 -245 127 0 -3 -7 0 -15 7 -8 7 -15 9 -15 5 0 -4 -6 -3 -12 3
-11 8 -100 38 -143 48 -5 1 -37 9 -70 18 -33 9 -76 18 -95 21 -19 3 -46 7 -60
10 -84 17 -223 28 -383 29 -76 1 -140 0 -141 -2z"/>
<path d="M67 1598 c-9 -5 -12 -169 -12 -707 0 -611 2 -701 15 -706 8 -4 16 -1
18 4 2 6 9 8 15 4 20 -12 47 -14 47 -2 0 6 6 7 13 2 6 -4 23 -7 37 -8 20 0 26
6 31 30 3 16 2 40 -3 53 -4 12 -4 22 0 22 11 0 9 404 -3 412 -6 5 -5 8 3 8 10
0 10 5 2 20 -6 11 -7 20 -3 20 12 0 10 104 -2 112 -6 5 -5 8 3 8 10 0 10 5 2
20 -6 11 -7 20 -3 20 7 0 8 145 1 345 -3 67 0 80 13 83 11 2 19 -7 24 -25 11
-36 10 -33 23 -66 7 -16 10 -33 6 -38 -3 -5 3 -9 13 -9 15 0 16 -2 3 -11 -11
-8 -12 -12 -2 -16 6 -2 10 -9 6 -14 -3 -5 0 -9 6 -9 7 0 10 -7 7 -15 -4 -8 -2
-17 4 -20 5 -4 7 -11 4 -16 -4 -5 -1 -9 6 -9 7 0 10 -2 7 -5 -3 -3 10 -49 29
-103 19 -53 35 -101 37 -107 4 -14 16 -45 27 -73 5 -13 7 -28 3 -33 -3 -5 1
-12 9 -15 8 -3 14 -13 13 -22 -2 -9 1 -24 5 -32 17 -30 57 -159 51 -164 -3 -3
0 -6 6 -6 7 0 11 -3 11 -8 -1 -4 -1 -9 1 -12 1 -3 3 -16 6 -29 2 -14 9 -30 15
-37 6 -7 8 -17 5 -23 -4 -5 -1 -15 6 -23 12 -13 15 -21 23 -58 2 -8 4 -16 5
-17 2 -2 4 -7 5 -13 1 -5 4 -12 5 -15 1 -3 3 -9 4 -14 0 -5 4 -13 9 -17 4 -4
7 -16 7 -26 0 -10 4 -18 10 -18 5 0 9 -3 9 -8 -4 -24 7 -27 89 -26 102 1 117
6 101 36 -8 15 -8 19 0 14 6 -4 12 -2 12 3 2 12 5 26 9 39 1 4 2 10 1 15 0 4
4 7 10 7 5 0 7 5 4 10 -3 6 -3 16 2 23 14 22 42 111 37 119 -3 5 0 8 5 8 6 0
11 8 11 18 0 9 6 29 14 43 15 30 30 80 27 93 -1 5 2 12 8 15 5 4 12 18 14 31
3 14 12 43 21 64 9 21 14 42 11 46 -3 5 -1 10 5 12 5 1 11 12 13 23 2 11 7 27
10 35 5 14 30 89 32 100 5 16 18 49 30 73 10 20 11 26 2 21 -9 -6 -9 -5 0 7 6
8 14 28 17 44 3 15 9 31 13 34 4 3 9 15 11 26 4 33 8 44 15 51 4 4 7 16 7 26
0 10 4 18 8 18 4 0 9 9 10 20 4 44 6 50 14 50 5 0 6 5 3 10 -7 12 5 13 21 2
14 -10 13 -342 -1 -342 -7 0 -7 -3 0 -8 14 -9 14 -182 0 -182 -7 0 -7 -3 0 -8
6 -4 10 -14 10 -22 0 -8 -4 -18 -10 -22 -7 -5 -7 -8 0 -8 14 0 14 -180 0 -180
-7 0 -7 -3 0 -8 6 -4 10 -14 10 -22 0 -8 -4 -18 -10 -22 -7 -5 -7 -8 0 -8 14
0 14 -180 0 -180 -7 0 -7 -3 0 -8 6 -4 10 -14 10 -22 0 -8 -4 -18 -10 -22 -6
-5 -6 -8 1 -8 6 0 11 -8 11 -17 0 -48 -1 -48 87 -48 46 0 83 3 80 6 -2 3 1 20
6 38 5 17 5 31 1 31 -9 0 -8 31 3 48 4 6 4 12 -1 12 -4 0 -6 52 -3 115 3 63 2
116 -3 118 -4 1 -3 17 2 35 5 17 6 32 2 32 -9 0 -8 31 3 48 4 6 3 12 -3 12 -6
0 -6 11 -1 30 5 17 5 30 1 30 -9 0 -8 31 3 48 4 6 4 12 -1 12 -4 0 -6 52 -3
115 3 63 2 116 -3 118 -4 1 -3 17 2 35 5 17 6 32 2 32 -9 0 -8 31 3 48 4 6 3
12 -3 12 -6 0 -6 11 -1 30 5 17 5 30 1 30 -9 0 -8 31 3 48 4 6 3 12 -2 12 -6
0 -7 14 -2 35 4 19 4 35 -1 37 -5 2 -5 17 0 36 5 17 6 32 2 32 -9 0 -8 31 3
48 4 6 3 12 -3 12 -6 0 -6 11 -1 30 5 17 5 30 1 30 -9 0 -8 31 2 47 11 17 -8
19 -143 18 -122 0 -125 -1 -137 -25 -7 -14 -13 -35 -13 -47 0 -12 -5 -25 -10
-28 -5 -3 -10 -12 -10 -20 0 -8 -5 -26 -12 -42 -6 -15 -10 -32 -9 -37 1 -4 -2
-13 -7 -20 -8 -10 -21 -52 -23 -73 0 -5 -5 -14 -11 -20 -6 -7 -7 -13 -4 -13 4
0 1 -10 -6 -22 -7 -13 -13 -27 -13 -33 -1 -5 -4 -17 -7 -25 -10 -25 -16 -45
-14 -50 0 -3 -7 -18 -17 -33 -12 -19 -14 -27 -5 -27 10 0 10 -2 0 -9 -8 -4
-13 -11 -13 -15 1 -3 1 -7 0 -8 0 -2 -2 -12 -4 -23 -2 -11 -9 -21 -15 -23 -5
-2 -7 -8 -4 -13 3 -6 -2 -21 -11 -36 -9 -14 -12 -22 -5 -18 9 5 8 1 -1 -16
-12 -22 -15 -29 -22 -61 -1 -7 -6 -19 -10 -25 -5 -7 -6 -17 -3 -22 4 -5 2 -11
-4 -13 -5 -1 -11 -14 -12 -28 -2 -14 -9 -31 -15 -38 -7 -7 -13 -21 -13 -31 0
-10 -3 -21 -7 -25 -4 -3 -8 -12 -9 -19 -1 -7 -9 -34 -19 -62 -9 -27 -18 -54
-19 -60 -2 -5 -6 -17 -9 -25 -3 -8 -11 -32 -17 -52 -6 -21 -16 -38 -21 -38 -5
0 -11 0 -14 0 -3 0 -5 3 -4 6 0 4 -3 10 -8 13 -13 9 -36 54 -24 47 6 -4 2 14
-9 40 -12 26 -22 56 -25 68 -2 12 -4 23 -5 26 -2 3 -2 8 -1 13 0 4 -4 7 -11 7
-6 0 -9 3 -5 6 3 3 -7 41 -23 85 -15 43 -26 79 -23 79 3 0 0 7 -7 15 -6 8 -8
20 -4 27 4 7 3 10 -1 5 -9 -8 -35 55 -35 86 0 9 -4 17 -8 17 -5 0 -9 6 -10 13
-1 16 -7 38 -16 59 -4 9 -9 23 -10 32 -1 8 -5 19 -9 22 -4 4 -7 16 -7 26 0 10
-3 18 -7 18 -5 0 -9 14 -10 32 -1 17 -6 34 -10 37 -8 6 -12 20 -17 48 -1 7 -5
16 -9 19 -4 4 -7 18 -7 31 0 13 -4 23 -10 23 -5 0 -10 13 -10 29 0 16 -4 31
-9 33 -6 2 -12 14 -14 28 -2 14 -9 38 -15 53 -7 16 -12 34 -12 42 0 8 -4 16
-10 20 -5 3 -7 12 -3 20 3 8 0 15 -6 15 -6 0 -11 7 -11 15 0 8 -3 16 -7 16
-31 6 -246 3 -256 -3z"/>
<path d="M1619 1605 c-3 0 0 -1407 3 -1410 8 -9 108 -10 108 -2 0 4 5 5 12 1
13 -9 223 -9 236 0 6 3 13 0 15 -6 4 -10 8 -10 15 1 8 11 10 11 15 0 3 -9 6
-9 6 -2 1 8 10 9 31 3 20 -6 30 -5 30 2 0 6 6 6 15 -2 11 -9 15 -9 15 -1 0 7
5 9 11 6 16 -10 79 -12 79 -2 0 4 5 5 12 1 13 -9 223 -9 236 0 6 3 13 0 15 -6
4 -10 8 -9 16 2 10 13 11 13 11 0 1 -38 22 25 22 68 2 98 31 90 -330 90 -174
0 -333 1 -353 1 l-35 1 0 615 c1 395 -3 619 -9 628 -7 8 -36 13 -92 12 -46 0
-83 0 -84 0z"/>
</g>
</svg>
